<svg width="21" height="19" viewBox="0 0 21 19" fill="none" xmlns="http://www.w3.org/2000/svg">
<path d="M16.75 3.25H1L3.8125 14.5H14.5L16.75 3.25ZM16.75 3.25L17.3125 1H20.6875" stroke="#333333"/>
<path d="M6.6875 17.3125C6.6875 17.9683 6.15584 18.5 5.5 18.5C4.84416 18.5 4.3125 17.9683 4.3125 17.3125C4.3125 16.6567 4.84416 16.125 5.5 16.125C6.15584 16.125 6.6875 16.6567 6.6875 17.3125Z" stroke="#333333"/>
<path d="M14 17.3125C14 17.9683 13.4683 18.5 12.8125 18.5C12.1567 18.5 11.625 17.9683 11.625 17.3125C11.625 16.6567 12.1567 16.125 12.8125 16.125C13.4683 16.125 14 16.6567 14 17.3125Z" stroke="#333333"/>
</svg>
