<svg width="9" height="11" viewBox="0 0 9 11" fill="none" xmlns="http://www.w3.org/2000/svg">
<path d="M3.41679 6.26426C3.93294 6.96183 4.59437 7.53641 5.35464 7.94765L6.55845 7.2245C6.59366 7.20654 6.63342 7.19978 6.67245 7.20513C6.71149 7.21048 6.74796 7.22767 6.77705 7.25444L8.611 8.84072C8.68108 8.89762 8.73705 8.97022 8.7745 9.05281C8.81195 9.13539 8.82984 9.22569 8.82677 9.31656C8.8237 9.40744 8.79975 9.49641 8.75681 9.57645C8.71387 9.65648 8.65311 9.72539 8.57934 9.77772C8.50557 9.83006 7.57015 10.5572 7.50692 10.5899C7.44369 10.6226 7.44369 10.6226 7.28674 10.6988C7.09712 10.7281 6.94104 10.6915 6.7605 10.6267C4.95889 9.98573 3.37358 8.84533 2.18577 7.33588C1.03013 5.81743 0.336591 3.99178 0.189273 2.08037C0.174928 1.89003 0.156664 1.77989 0.176863 1.63464C0.19629 1.48929 0.216612 1.34407 0.306685 1.22327C0.396759 1.10246 1.41521 0.404176 1.41521 0.404176C1.48433 0.349642 1.56474 0.311572 1.6504 0.292818C1.73606 0.274063 1.82476 0.27511 1.90986 0.295879C1.99496 0.316648 2.07425 0.356602 2.14179 0.412748C2.20934 0.468894 2.26339 0.539779 2.2999 0.620093L3.36524 2.81153C3.38404 2.84622 3.39129 2.88613 3.38591 2.92537C3.38054 2.9646 3.36283 3.00109 3.33539 3.02945L2.30546 3.98068C2.50326 4.81619 2.88289 5.59624 3.41679 6.26426Z" fill="#E11E26"/>
</svg>
